<?xml version="1.0" standalone="no"?>
<!DOCTYPE svg PUBLIC "-//W3C//DTD SVG 20010904//EN"
 "http://www.w3.org/TR/2001/REC-SVG-20010904/DTD/svg10.dtd">
<svg version="1.0" xmlns="http://www.w3.org/2000/svg"
 width="992.000000pt" height="1056.000000pt" viewBox="0 0 992.000000 1056.000000"
 preserveAspectRatio="xMidYMid meet">

<g transform="translate(0.000000,1056.000000) scale(0.100000,-0.100000)"
fill="#000000" stroke="none">
<path d="M4667 9498 c-180 -106 -326 -196 -324 -201 2 -6 151 -97 332 -203
l329 -193 45 26 c25 15 132 77 236 138 105 62 234 138 289 170 82 48 96 59 85
70 -8 8 -68 45 -134 83 -66 38 -208 121 -316 185 -108 65 -200 117 -205 117
-5 0 -156 -86 -337 -192z m666 -53 c130 -77 235 -144 234 -150 -3 -8 -519
-317 -555 -332 -7 -3 -72 30 -145 72 -324 191 -437 259 -437 264 1 3 130 81
288 173 l287 167 46 -27 c25 -15 152 -90 282 -167z"/>
<path d="M4319 9228 c-2 -7 -2 -177 1 -377 l5 -365 175 -104 c300 -179 460
-272 468 -272 5 0 7 159 5 353 -2 193 -3 361 -3 372 0 16 -26 36 -102 81 -57
34 -193 114 -303 179 -110 65 -210 124 -221 132 -17 11 -22 11 -25 1z"/>
<path d="M5630 9206 c-30 -18 -172 -102 -315 -186 -143 -83 -266 -157 -273
-164 -9 -9 -12 -94 -10 -383 l3 -371 65 38 c36 20 133 76 215 125 83 49 202
118 265 155 l115 67 3 377 c1 207 -1 376 -5 376 -5 0 -33 -16 -63 -34z m8
-692 c-7 -7 -136 -84 -285 -172 l-273 -160 0 322 0 322 283 166 282 167 3
-316 c2 -245 -1 -320 -10 -329z"/>
<path d="M5560 8317 c0 -7 114 -84 254 -172 l254 -160 -1 -45 c-3 -80 48 -128
122 -116 44 7 70 33 80 78 17 74 -43 137 -118 124 -20 -4 -45 -8 -56 -9 -11 0
-131 69 -268 156 -136 86 -252 157 -257 157 -6 0 -10 -6 -10 -13z"/>
<path d="M2734 8279 c-11 -6 -28 -23 -37 -39 -54 -91 45 -196 138 -146 l32 17
74 -49 c41 -27 184 -119 319 -204 300 -190 463 -294 600 -383 216 -140 260
-163 260 -136 0 9 -28 27 -560 366 -162 103 -353 225 -425 271 -71 46 -157
100 -191 121 l-60 37 0 49 c1 43 -3 52 -32 78 -34 31 -78 37 -118 18z"/>
<path d="M4910 7736 c-116 -64 -640 -369 -694 -403 -32 -21 -36 -27 -25 -38 8
-7 147 -89 309 -183 558 -321 507 -294 532 -281 13 6 138 79 278 162 140 83
313 184 384 226 71 42 131 81 133 88 4 10 -21 26 -142 93 -22 12 -146 84 -275
159 -129 76 -273 158 -320 183 l-85 47 -95 -53z"/>
<path d="M6800 7384 c-173 -102 -322 -189 -330 -195 -19 -12 -45 5 275 -183
143 -84 286 -169 318 -188 l58 -35 237 141 c130 78 279 166 330 195 50 30 92
57 92 61 0 5 -89 60 -197 123 -109 64 -256 149 -327 191 -72 42 -132 76 -135
76 -3 0 -148 -84 -321 -186z"/>
<path d="M2828 7535 c-20 -14 -164 -99 -320 -189 -156 -90 -291 -172 -301
-181 -18 -16 -19 -37 -15 -391 2 -315 5 -376 18 -388 8 -8 96 -62 195 -119 99
-58 241 -141 315 -184 l135 -80 3 363 c2 382 3 385 47 368 13 -5 15 -55 15
-365 0 -197 3 -359 7 -359 4 0 44 22 88 49 96 58 368 219 483 285 l82 48 0
377 c0 287 -3 381 -12 393 -7 8 -78 53 -158 98 -80 45 -227 131 -327 191 -99
60 -189 109 -200 108 -10 0 -35 -11 -55 -24z m254 -133 c100 -60 236 -140 300
-178 65 -38 118 -71 118 -74 0 -5 -554 -338 -595 -358 -16 -7 -55 12 -220 109
-110 65 -249 146 -308 180 -71 41 -105 65 -98 72 16 16 595 356 608 356 6 1
94 -48 195 -107z"/>
<path d="M4130 6797 l0 -463 198 -112 c108 -62 294 -169 412 -237 118 -69 221
-125 228 -125 9 0 12 97 12 454 l0 455 -57 34 c-32 19 -157 92 -278 162 -280
161 -344 199 -431 252 -39 24 -74 43 -77 43 -4 0 -7 -208 -7 -463z"/>
<path d="M5565 7079 c-159 -94 -323 -189 -363 -212 -157 -90 -158 -92 -165
-133 -10 -57 -8 -884 1 -884 7 0 152 83 552 314 69 40 162 94 208 120 l82 48
0 459 c0 361 -3 459 -12 459 -7 0 -143 -77 -303 -171z"/>
<path d="M6430 6762 l0 -367 68 -41 c158 -97 562 -334 576 -340 12 -5 16 0 16
17 0 13 0 175 1 359 0 184 0 340 0 346 -1 6 -25 24 -53 39 -57 31 -434 253
-535 316 -34 22 -65 39 -68 39 -3 0 -5 -165 -5 -368z"/>
<path d="M7760 7103 c-25 -15 -155 -92 -290 -172 -135 -79 -262 -154 -282
-165 l-38 -21 0 -373 0 -373 58 32 c162 93 589 342 600 351 9 8 12 96 12 379
0 203 -3 369 -7 369 -5 -1 -28 -13 -53 -27z m11 -372 c2 -204 0 -326 -6 -328
-6 -2 -131 -73 -278 -159 -148 -85 -275 -158 -283 -161 -12 -4 -14 44 -14 314
l0 319 288 171 c158 94 288 170 289 169 0 0 3 -147 4 -325z"/>
<path d="M6030 6984 c-40 -28 -49 -46 -50 -90 0 -36 5 -47 35 -73 38 -33 61
-37 109 -20 29 11 38 7 132 -50 56 -33 107 -61 113 -61 33 0 -1 32 -91 86
l-102 61 3 45 c2 39 -2 51 -26 77 -35 40 -87 50 -123 25z"/>
<path d="M3205 6119 c-10 -15 1 -24 160 -124 77 -49 184 -117 237 -152 54 -34
102 -63 108 -63 22 0 8 26 -28 50 -37 24 -437 280 -459 293 -6 4 -15 2 -18 -4z"/>
<path d="M6745 6107 c-71 -41 -409 -259 -428 -275 -10 -9 -14 -19 -8 -25 11
-11 491 292 491 311 0 17 -9 15 -55 -11z"/>
<path d="M2597 6033 c-4 -3 -7 -197 -7 -429 0 -412 0 -423 -20 -429 -32 -10
-60 -54 -60 -95 0 -76 75 -125 146 -95 l37 15 216 -139 c119 -76 513 -328 876
-558 363 -231 706 -450 763 -486 99 -64 138 -81 130 -54 -5 13 -31 29 -708
460 -757 481 -1073 682 -1167 743 l-91 59 0 47 c1 52 -15 79 -64 104 l-28 15
0 424 c0 234 -4 425 -8 425 -5 0 -12 -3 -15 -7z"/>
<path d="M4080 5937 c-85 -51 -233 -137 -327 -192 -95 -55 -171 -104 -170
-110 2 -5 30 -25 63 -44 32 -19 179 -105 326 -192 146 -88 269 -159 273 -159
4 0 115 65 248 144 133 79 280 165 326 193 47 27 86 53 88 59 2 5 -20 23 -49
40 -29 17 -159 93 -288 169 -288 169 -317 185 -327 185 -4 -1 -78 -42 -163
-93z"/>
<path d="M5585 5917 c-104 -62 -252 -148 -327 -192 -76 -44 -136 -84 -135 -89
2 -7 134 -86 638 -384 28 -17 14 -24 583 316 l109 65 -24 18 c-13 10 -67 42
-119 72 -52 30 -191 111 -308 180 -118 70 -217 127 -220 127 -4 -1 -92 -51
-197 -113z"/>
<path d="M7380 5537 c0 -439 -1 -475 -17 -489 -10 -8 -160 -104 -333 -213
-173 -108 -364 -229 -425 -268 -108 -69 -212 -135 -905 -571 -190 -120 -352
-224 -360 -232 -9 -9 -11 -17 -5 -23 10 -9 85 36 640 389 171 108 443 280 605
383 162 103 414 262 560 355 l265 168 3 487 c2 429 0 487 -13 487 -13 0 -15
-58 -15 -473z"/>
<path d="M4624 5397 c-177 -106 -329 -198 -338 -206 -14 -12 -16 -52 -16 -370
0 -196 4 -361 8 -368 5 -8 23 -2 62 21 30 18 170 99 310 181 140 82 267 157
283 167 l27 19 -1 352 c-1 194 -4 362 -7 374 -7 20 -30 8 -328 -170z"/>
<path d="M3552 5203 l3 -377 135 -81 c136 -81 466 -272 508 -294 l22 -12 0
375 0 375 -247 147 c-137 81 -285 169 -329 195 -45 27 -85 49 -88 49 -3 0 -5
-170 -4 -377z m308 145 c135 -80 260 -153 278 -164 l32 -18 0 -324 0 -324 -32
19 c-18 11 -146 86 -284 167 l-251 147 -5 317 c-3 174 -4 320 -1 325 2 4 7 6
11 4 4 -2 117 -69 252 -149z"/>
<path d="M5087 5574 c-8 -9 -9 -699 -1 -729 3 -13 113 -83 334 -212 180 -106
331 -193 334 -193 3 0 6 168 6 374 l0 374 -32 20 c-398 237 -612 364 -622 368
-6 2 -15 1 -19 -2z m338 -241 l280 -168 3 -322 c1 -178 0 -323 -2 -323 -5 0
-394 229 -506 297 l-65 40 -3 321 c-1 177 1 322 5 322 5 0 134 -75 288 -167z"/>
<path d="M6190 5411 c-157 -93 -305 -182 -330 -198 l-45 -28 -3 -373 -2 -373
30 16 c43 22 624 365 633 374 4 4 6 175 5 379 l-3 372 -285 -169z"/>
<path d="M4829 3777 c-96 -56 -243 -143 -326 -192 -84 -50 -153 -94 -153 -100
0 -5 133 -89 296 -185 163 -96 310 -183 327 -194 l32 -19 327 194 c180 107
328 199 328 204 0 6 -30 28 -67 50 -38 22 -173 102 -302 178 -129 76 -247 145
-262 152 -26 14 -33 10 -200 -88z m442 -108 c140 -83 264 -156 277 -162 12 -6
22 -15 22 -21 -1 -11 -556 -343 -569 -339 -3 1 -108 62 -231 135 -124 74 -249
148 -277 164 -29 16 -53 32 -53 36 0 9 551 338 566 338 7 0 126 -68 265 -151z"/>
<path d="M4317 3423 c-9 -8 -7 -620 1 -692 l7 -54 185 -109 c321 -189 458
-268 464 -268 3 0 6 166 6 369 l0 368 -307 183 c-170 101 -317 190 -329 197
-11 7 -24 10 -27 6z m323 -238 c146 -86 271 -163 278 -169 9 -9 12 -83 10
-324 l-3 -312 -100 58 c-55 33 -182 107 -282 167 l-183 107 0 320 c0 175 3
317 8 315 4 -2 126 -75 272 -162z"/>
<path d="M5620 3388 c-36 -22 -183 -110 -327 -195 l-263 -155 0 -369 c0 -203
3 -369 6 -369 3 0 152 86 330 192 l324 192 0 373 c0 205 -1 373 -2 372 -2 0
-32 -18 -68 -41z"/>
</g>
</svg>
